<svg xmlns="http://www.w3.org/2000/svg" viewBox="0 0 636 304" width="636" height="304" fill="none">
  <path fill="#F2B72A" fill-rule="evenodd" d="M 213.00 265.50 L 202.00 265.50 L 201.00 264.50 L 198.00 264.50 L 197.00 263.50 L 196.00 263.50 L 195.00 262.50 L 194.00 262.50 L 193.00 261.50 L 192.00 261.50 L 184.50 254.00 L 184.50 253.00 L 183.50 252.00 L 183.50 251.00 L 181.50 249.00 L 181.50 247.00 L 180.50 246.00 L 180.50 244.00 L 179.50 243.00 L 179.50 240.00 L 178.50 239.00 L 178.50 235.00 L 177.50 234.00 L 177.50 216.00 L 178.50 215.00 L 178.50 207.00 L 179.50 206.00 L 179.50 199.00 L 180.50 198.00 L 180.50 193.00 L 181.50 192.00 L 181.50 185.00 L 182.50 184.00 L 182.50 180.00 L 183.50 179.00 L 183.50 174.00 L 184.50 173.00 L 184.50 168.00 L 185.50 167.00 L 185.50 162.00 L 186.50 161.00 L 186.50 158.00 L 187.50 157.00 L 187.50 152.00 L 188.50 151.00 L 188.50 147.00 L 189.50 146.00 L 189.50 142.00 L 190.50 141.00 L 190.50 138.00 L 191.50 137.00 L 191.50 133.00 L 192.50 132.00 L 192.50 129.00 L 193.50 128.00 L 193.50 124.00 L 194.50 123.00 L 194.50 119.00 L 195.50 118.00 L 195.50 116.00 L 196.50 115.00 L 196.50 111.00 L 197.50 110.00 L 197.50 106.00 L 198.50 105.00 L 198.50 103.00 L 199.50 102.00 L 199.50 99.00 L 200.50 98.00 L 200.50 95.00 L 201.50 94.00 L 201.50 91.00 L 202.50 90.00 L 202.50 88.00 L 203.50 87.00 L 203.50 85.00 L 204.50 84.00 L 204.50 81.00 L 205.50 80.00 L 205.50 78.00 L 206.50 77.00 L 206.50 76.00 L 207.50 75.00 L 207.50 73.00 L 208.50 72.00 L 208.50 70.00 L 209.50 69.00 L 209.50 67.00 L 210.50 66.00 L 210.50 64.00 L 211.50 63.00 L 211.50 61.00 L 212.50 60.00 L 212.50 58.00 L 213.50 57.00 L 213.50 56.00 L 214.50 55.00 L 214.50 53.00 L 215.50 52.00 L 215.50 51.00 L 216.50 50.00 L 216.50 48.00 L 217.50 47.00 L 217.50 46.00 L 218.50 45.00 L 218.50 44.00 L 219.50 43.00 L 219.50 42.00 L 220.50 41.00 L 220.50 40.00 L 221.50 39.00 L 221.50 38.00 L 223.50 36.00 L 223.50 35.00 L 224.50 34.00 L 224.50 33.00 L 225.50 32.00 L 225.50 31.00 L 227.50 29.00 L 227.50 28.00 L 228.50 27.00 L 228.50 26.00 L 232.50 22.00 L 232.50 21.00 L 238.00 15.50 L 239.00 15.50 L 242.00 12.50 L 243.00 12.50 L 244.00 11.50 L 245.00 11.50 L 246.00 10.50 L 247.00 10.50 L 248.00 9.50 L 250.00 9.50 L 251.00 8.50 L 255.00 8.50 L 256.00 7.50 L 260.00 7.50 L 261.00 8.50 L 264.00 8.50 L 265.00 9.50 L 266.00 9.50 L 267.00 10.50 L 268.00 10.50 L 269.00 11.50 L 270.00 11.50 L 276.50 18.00 L 276.50 19.00 L 277.50 20.00 L 277.50 21.00 L 278.50 22.00 L 278.50 23.00 L 279.50 24.00 L 279.50 27.00 L 280.50 28.00 L 280.50 30.00 L 281.50 31.00 L 281.50 35.00 L 282.50 36.00 L 282.50 60.00 L 281.50 61.00 L 281.50 67.00 L 280.50 68.00 L 280.50 74.00 L 279.50 75.00 L 279.50 79.00 L 278.50 80.00 L 278.50 83.00 L 277.50 84.00 L 277.50 87.00 L 276.50 88.00 L 276.50 91.00 L 275.50 92.00 L 275.50 95.00 L 274.50 96.00 L 274.50 97.00 L 273.50 98.00 L 273.50 101.00 L 272.50 102.00 L 272.50 103.00 L 271.50 104.00 L 271.50 106.00 L 270.50 107.00 L 270.50 109.00 L 269.50 110.00 L 269.50 111.00 L 268.50 112.00 L 268.50 113.00 L 267.50 114.00 L 267.50 116.00 L 266.50 117.00 L 266.50 118.00 L 265.50 119.00 L 265.50 121.00 L 264.50 122.00 L 264.50 123.00 L 263.50 124.00 L 263.50 125.00 L 262.50 126.00 L 262.50 127.00 L 261.50 128.00 L 261.50 129.00 L 260.50 130.00 L 260.50 131.00 L 259.50 132.00 L 259.50 134.00 L 258.50 135.00 L 258.50 136.00 L 257.50 137.00 L 257.50 138.00 L 256.50 139.00 L 256.50 140.00 L 254.50 142.00 L 254.50 143.00 L 253.50 144.00 L 253.50 145.00 L 252.50 146.00 L 252.50 147.00 L 250.50 149.00 L 250.50 150.00 L 249.50 151.00 L 249.50 152.00 L 248.50 153.00 L 248.50 154.00 L 246.50 156.00 L 246.50 157.00 L 244.50 159.00 L 244.50 160.00 L 242.50 162.00 L 242.50 163.00 L 241.50 164.00 L 241.50 165.00 L 239.50 167.00 L 239.50 168.00 L 236.50 171.00 L 236.50 172.00 L 234.50 174.00 L 234.50 175.00 L 232.50 177.00 L 232.50 178.00 L 228.50 182.00 L 228.50 183.00 L 225.50 186.00 L 225.50 187.00 L 222.50 190.00 L 222.50 191.00 L 216.50 197.00 L 216.50 198.00 L 215.50 199.00 L 215.50 202.00 L 214.50 203.00 L 214.50 208.00 L 213.50 209.00 L 213.50 220.00 L 214.50 221.00 L 214.50 222.00 L 215.00 222.50 L 216.00 222.50 L 217.00 223.50 L 218.00 222.50 L 219.00 222.50 L 220.00 221.50 L 221.00 221.50 L 224.00 218.50 L 225.00 218.50 L 228.50 215.00 L 228.50 214.00 L 233.50 209.00 L 233.50 208.00 L 239.50 202.00 L 239.50 201.00 L 241.50 199.00 L 241.50 198.00 L 243.50 196.00 L 243.50 195.00 L 244.50 194.00 L 244.50 193.00 L 246.50 191.00 L 246.50 190.00 L 248.50 188.00 L 248.50 187.00 L 249.50 186.00 L 249.50 185.00 L 250.50 184.00 L 250.50 182.00 L 251.50 181.00 L 251.50 179.00 L 252.50 178.00 L 252.50 177.00 L 253.50 176.00 L 253.50 174.00 L 254.50 173.00 L 254.50 172.00 L 255.50 171.00 L 255.50 170.00 L 256.50 169.00 L 256.50 167.00 L 257.50 166.00 L 257.50 165.00 L 258.50 164.00 L 258.50 163.00 L 259.50 162.00 L 259.50 161.00 L 260.50 160.00 L 260.50 159.00 L 262.50 157.00 L 262.50 156.00 L 265.50 153.00 L 265.50 152.00 L 267.50 150.00 L 267.50 149.00 L 282.00 134.50 L 283.00 134.50 L 286.00 131.50 L 287.00 131.50 L 289.00 129.50 L 290.00 129.50 L 291.00 128.50 L 292.00 128.50 L 293.00 127.50 L 294.00 127.50 L 295.00 126.50 L 296.00 126.50 L 297.00 125.50 L 299.00 125.50 L 300.00 124.50 L 303.00 124.50 L 304.00 123.50 L 308.00 123.50 L 309.00 122.50 L 321.00 122.50 L 322.00 123.50 L 324.00 123.50 L 325.00 124.50 L 327.00 124.50 L 328.00 125.50 L 329.00 125.50 L 330.00 126.50 L 333.00 126.50 L 334.50 125.00 L 334.50 124.00 L 335.50 123.00 L 335.50 122.00 L 336.50 121.00 L 336.50 120.00 L 341.00 115.50 L 342.00 115.50 L 343.00 114.50 L 344.00 114.50 L 345.00 113.50 L 348.00 113.50 L 349.00 112.50 L 350.00 112.50 L 351.00 113.50 L 357.00 113.50 L 358.00 114.50 L 359.00 114.50 L 361.00 116.50 L 362.00 116.50 L 364.50 119.00 L 364.50 120.00 L 365.50 121.00 L 365.50 122.00 L 366.50 123.00 L 366.50 125.00 L 367.50 126.00 L 367.50 129.00 L 366.50 130.00 L 366.50 134.00 L 365.50 135.00 L 365.50 138.00 L 364.50 139.00 L 364.50 141.00 L 363.50 142.00 L 363.50 145.00 L 362.50 146.00 L 362.50 149.00 L 361.50 150.00 L 361.50 154.00 L 360.50 155.00 L 360.50 157.00 L 359.50 158.00 L 359.50 162.00 L 358.50 163.00 L 358.50 166.00 L 357.50 167.00 L 357.50 171.00 L 356.50 172.00 L 356.50 176.00 L 355.50 177.00 L 355.50 182.00 L 354.50 183.00 L 354.50 187.00 L 353.50 188.00 L 353.50 195.00 L 352.50 196.00 L 352.50 202.00 L 354.00 203.50 L 356.00 203.50 L 362.50 197.00 L 362.50 196.00 L 363.50 195.00 L 363.50 194.00 L 365.50 192.00 L 365.50 191.00 L 367.50 189.00 L 367.50 188.00 L 369.50 186.00 L 369.50 185.00 L 371.50 183.00 L 371.50 182.00 L 372.50 181.00 L 372.50 180.00 L 373.50 179.00 L 373.50 178.00 L 375.50 176.00 L 375.50 175.00 L 376.50 174.00 L 376.50 173.00 L 377.50 172.00 L 377.50 171.00 L 378.50 170.00 L 378.50 169.00 L 379.50 168.00 L 379.50 166.00 L 380.50 165.00 L 380.50 152.00 L 379.50 151.00 L 379.50 141.00 L 380.50 140.00 L 380.50 129.00 L 381.50 128.00 L 381.50 124.00 L 382.50 123.00 L 382.50 120.00 L 383.50 119.00 L 383.50 117.00 L 385.50 115.00 L 385.50 114.00 L 389.00 110.50 L 390.00 110.50 L 391.00 109.50 L 392.00 109.50 L 393.00 108.50 L 394.00 108.50 L 395.00 107.50 L 399.00 107.50 L 400.00 106.50 L 401.00 106.50 L 402.00 107.50 L 407.00 107.50 L 408.00 108.50 L 409.00 108.50 L 410.00 109.50 L 411.00 109.50 L 415.50 114.00 L 415.50 115.00 L 416.50 116.00 L 416.50 121.00 L 417.50 122.00 L 417.50 124.00 L 416.50 125.00 L 416.50 131.00 L 415.50 132.00 L 415.50 139.00 L 414.50 140.00 L 414.50 167.00 L 415.50 168.00 L 415.50 175.00 L 416.50 176.00 L 416.50 181.00 L 417.50 182.00 L 417.50 186.00 L 420.00 188.50 L 421.00 188.50 L 423.50 186.00 L 423.50 185.00 L 425.50 183.00 L 425.50 182.00 L 427.50 180.00 L 427.50 179.00 L 430.50 176.00 L 430.50 175.00 L 432.50 173.00 L 432.50 172.00 L 433.50 171.00 L 433.50 170.00 L 435.50 168.00 L 435.50 166.00 L 436.50 165.00 L 436.50 164.00 L 438.50 162.00 L 438.50 161.00 L 439.50 160.00 L 439.50 155.00 L 438.50 154.00 L 438.50 152.00 L 437.50 151.00 L 437.50 149.00 L 436.50 148.00 L 436.50 146.00 L 435.50 145.00 L 435.50 142.00 L 434.50 141.00 L 434.50 128.00 L 435.50 127.00 L 435.50 122.00 L 436.50 121.00 L 436.50 118.00 L 437.50 117.00 L 437.50 116.00 L 438.50 115.00 L 438.50 113.00 L 439.50 112.00 L 439.50 111.00 L 440.50 110.00 L 440.50 109.00 L 442.50 107.00 L 442.50 106.00 L 444.50 104.00 L 444.50 103.00 L 450.00 97.50 L 451.00 97.50 L 454.00 94.50 L 455.00 94.50 L 456.00 93.50 L 458.00 93.50 L 459.00 92.50 L 461.00 92.50 L 462.00 91.50 L 474.00 91.50 L 475.00 92.50 L 477.00 92.50 L 478.00 93.50 L 480.00 93.50 L 487.50 101.00 L 487.50 102.00 L 488.50 103.00 L 488.50 105.00 L 489.50 106.00 L 489.50 110.00 L 490.50 111.00 L 490.50 115.00 L 489.50 116.00 L 489.50 123.00 L 488.50 124.00 L 488.50 127.00 L 487.50 128.00 L 487.50 130.00 L 486.50 131.00 L 486.50 133.00 L 485.50 134.00 L 485.50 136.00 L 484.50 137.00 L 484.50 139.00 L 483.50 140.00 L 483.50 141.00 L 486.00 143.50 L 487.00 143.50 L 488.00 142.50 L 489.00 142.50 L 491.50 140.00 L 491.50 139.00 L 492.50 138.00 L 492.50 136.00 L 493.50 135.00 L 493.50 134.00 L 494.50 133.00 L 494.50 132.00 L 495.50 131.00 L 495.50 130.00 L 496.50 129.00 L 496.50 128.00 L 497.50 127.00 L 497.50 126.00 L 498.50 125.00 L 498.50 124.00 L 499.50 123.00 L 499.50 122.00 L 500.50 121.00 L 500.50 120.00 L 502.50 118.00 L 502.50 117.00 L 504.50 115.00 L 504.50 114.00 L 506.50 112.00 L 506.50 111.00 L 520.00 97.50 L 521.00 97.50 L 523.00 95.50 L 524.00 95.50 L 526.00 93.50 L 527.00 93.50 L 529.00 91.50 L 530.00 91.50 L 531.00 90.50 L 532.00 90.50 L 534.00 88.50 L 535.00 88.50 L 536.00 87.50 L 537.00 87.50 L 538.00 86.50 L 539.00 86.50 L 540.00 85.50 L 543.00 85.50 L 544.00 84.50 L 546.00 84.50 L 547.00 83.50 L 552.00 83.50 L 553.00 82.50 L 562.00 82.50 L 563.00 83.50 L 568.00 83.50 L 569.00 84.50 L 571.00 84.50 L 572.00 85.50 L 574.00 85.50 L 576.00 87.50 L 577.00 87.50 L 579.00 89.50 L 580.00 89.50 L 585.50 95.00 L 585.50 96.00 L 587.50 98.00 L 587.50 99.00 L 588.50 100.00 L 588.50 101.00 L 589.50 102.00 L 589.50 104.00 L 590.50 105.00 L 590.50 108.00 L 591.50 109.00 L 591.50 124.00 L 590.50 125.00 L 590.50 128.00 L 589.50 129.00 L 589.50 131.00 L 588.50 132.00 L 588.50 133.00 L 587.50 134.00 L 587.50 136.00 L 586.50 137.00 L 586.50 138.00 L 584.50 140.00 L 584.50 141.00 L 582.50 143.00 L 582.50 144.00 L 580.50 146.00 L 580.50 147.00 L 576.50 151.00 L 576.50 152.00 L 571.00 157.50 L 570.00 157.50 L 566.00 161.50 L 565.00 161.50 L 561.00 165.50 L 560.00 165.50 L 559.00 166.50 L 558.00 166.50 L 556.00 168.50 L 555.00 168.50 L 554.00 169.50 L 553.00 169.50 L 551.00 171.50 L 550.00 171.50 L 549.00 172.50 L 548.00 172.50 L 547.00 173.50 L 546.00 173.50 L 545.00 174.50 L 544.00 174.50 L 543.00 175.50 L 542.00 175.50 L 541.00 176.50 L 539.00 176.50 L 538.00 177.50 L 537.00 177.50 L 536.00 178.50 L 534.00 178.50 L 533.00 179.50 L 531.00 179.50 L 530.00 180.50 L 528.00 180.50 L 527.00 181.50 L 526.00 181.50 L 525.50 182.00 L 525.50 184.00 L 529.00 187.50 L 532.00 187.50 L 533.00 188.50 L 539.00 188.50 L 540.00 187.50 L 544.00 187.50 L 545.00 186.50 L 547.00 186.50 L 548.00 185.50 L 549.00 185.50 L 550.00 184.50 L 551.00 184.50 L 552.00 183.50 L 553.00 183.50 L 554.00 182.50 L 555.00 182.50 L 557.00 180.50 L 558.00 180.50 L 560.00 178.50 L 561.00 178.50 L 564.00 175.50 L 565.00 175.50 L 568.00 172.50 L 569.00 172.50 L 583.50 158.00 L 583.50 157.00 L 589.50 151.00 L 589.50 150.00 L 593.50 146.00 L 593.50 145.00 L 595.50 143.00 L 595.50 142.00 L 597.50 140.00 L 597.50 139.00 L 599.50 137.00 L 599.50 136.00 L 600.50 135.00 L 600.50 134.00 L 603.50 131.00 L 603.50 130.00 L 604.00 129.50 L 605.00 129.50 L 606.00 128.50 L 607.00 128.50 L 608.00 127.50 L 609.00 127.50 L 610.00 126.50 L 617.00 126.50 L 618.00 127.50 L 619.00 127.50 L 620.00 128.50 L 621.00 128.50 L 624.50 132.00 L 624.50 133.00 L 625.50 134.00 L 625.50 135.00 L 626.50 136.00 L 626.50 140.00 L 627.50 141.00 L 627.50 145.00 L 626.50 146.00 L 626.50 149.00 L 625.50 150.00 L 625.50 151.00 L 624.50 152.00 L 624.50 154.00 L 622.50 156.00 L 622.50 157.00 L 620.50 159.00 L 620.50 160.00 L 617.50 163.00 L 617.50 164.00 L 615.50 166.00 L 615.50 167.00 L 613.50 169.00 L 613.50 170.00 L 610.50 173.00 L 610.50 174.00 L 607.50 177.00 L 607.50 178.00 L 600.50 185.00 L 600.50 186.00 L 590.00 196.50 L 589.00 196.50 L 580.00 205.50 L 579.00 205.50 L 577.00 207.50 L 576.00 207.50 L 574.00 209.50 L 573.00 209.50 L 571.00 211.50 L 570.00 211.50 L 569.00 212.50 L 568.00 212.50 L 566.00 214.50 L 565.00 214.50 L 564.00 215.50 L 563.00 215.50 L 562.00 216.50 L 561.00 216.50 L 560.00 217.50 L 559.00 217.50 L 558.00 218.50 L 557.00 218.50 L 556.00 219.50 L 554.00 219.50 L 553.00 220.50 L 551.00 220.50 L 550.00 221.50 L 548.00 221.50 L 547.00 222.50 L 543.00 222.50 L 542.00 223.50 L 535.00 223.50 L 534.00 224.50 L 524.00 224.50 L 523.00 223.50 L 518.00 223.50 L 517.00 222.50 L 513.00 222.50 L 512.00 221.50 L 511.00 221.50 L 510.00 220.50 L 509.00 220.50 L 508.00 219.50 L 507.00 219.50 L 506.00 218.50 L 505.00 218.50 L 502.00 215.50 L 501.00 215.50 L 491.50 206.00 L 491.50 205.00 L 490.50 204.00 L 490.50 203.00 L 489.50 202.00 L 489.50 201.00 L 488.50 200.00 L 488.50 199.00 L 487.50 198.00 L 487.50 196.00 L 486.50 195.00 L 486.50 193.00 L 485.50 192.00 L 485.50 188.00 L 484.50 187.00 L 484.50 181.00 L 481.00 177.50 L 466.00 177.50 L 462.50 181.00 L 462.50 182.00 L 461.50 183.00 L 461.50 184.00 L 459.50 186.00 L 459.50 187.00 L 457.50 189.00 L 457.50 190.00 L 456.50 191.00 L 456.50 192.00 L 455.50 193.00 L 455.50 194.00 L 453.50 196.00 L 453.50 197.00 L 451.50 199.00 L 451.50 200.00 L 450.50 201.00 L 450.50 202.00 L 449.50 203.00 L 449.50 204.00 L 447.50 206.00 L 447.50 207.00 L 443.50 211.00 L 443.50 212.00 L 441.50 214.00 L 441.50 215.00 L 439.50 217.00 L 439.50 218.00 L 436.50 221.00 L 436.50 222.00 L 433.50 225.00 L 433.50 226.00 L 425.00 234.50 L 424.00 234.50 L 423.00 235.50 L 422.00 235.50 L 420.00 237.50 L 418.00 237.50 L 417.00 238.50 L 414.00 238.50 L 413.00 239.50 L 407.00 239.50 L 406.00 238.50 L 404.00 238.50 L 403.00 237.50 L 402.00 237.50 L 401.00 236.50 L 400.00 236.50 L 395.50 232.00 L 395.50 231.00 L 393.50 229.00 L 393.50 228.00 L 392.50 227.00 L 392.50 225.00 L 391.50 224.00 L 391.50 222.00 L 390.50 221.00 L 390.50 219.00 L 388.00 216.50 L 387.00 216.50 L 383.50 220.00 L 383.50 221.00 L 379.50 225.00 L 379.50 226.00 L 373.50 232.00 L 373.50 233.00 L 373.00 233.50 L 372.00 233.50 L 366.00 239.50 L 365.00 239.50 L 363.00 241.50 L 362.00 241.50 L 361.00 242.50 L 360.00 242.50 L 358.00 244.50 L 357.00 244.50 L 356.00 245.50 L 354.00 245.50 L 353.00 246.50 L 351.00 246.50 L 350.00 247.50 L 340.00 247.50 L 339.00 246.50 L 337.00 246.50 L 336.00 245.50 L 335.00 245.50 L 334.00 244.50 L 333.00 244.50 L 331.00 242.50 L 330.00 242.50 L 326.50 239.00 L 326.50 238.00 L 323.00 234.50 L 322.00 234.50 L 321.00 233.50 L 320.00 234.50 L 319.00 234.50 L 313.00 240.50 L 312.00 240.50 L 309.00 243.50 L 308.00 243.50 L 306.00 245.50 L 305.00 245.50 L 304.00 246.50 L 303.00 246.50 L 302.00 247.50 L 301.00 247.50 L 300.00 248.50 L 299.00 248.50 L 298.00 249.50 L 296.00 249.50 L 295.00 250.50 L 291.00 250.50 L 290.00 251.50 L 276.00 251.50 L 275.00 250.50 L 272.00 250.50 L 271.00 249.50 L 269.00 249.50 L 267.00 247.50 L 266.00 247.50 L 265.00 246.50 L 264.00 246.50 L 262.00 244.50 L 261.00 244.50 L 254.00 237.50 L 251.00 237.50 L 245.50 243.00 L 245.50 244.00 L 238.00 251.50 L 237.00 251.50 L 235.00 253.50 L 234.00 253.50 L 230.00 257.50 L 229.00 257.50 L 228.00 258.50 L 227.00 258.50 L 225.00 260.50 L 224.00 260.50 L 223.00 261.50 L 222.00 261.50 L 221.00 262.50 L 220.00 262.50 L 219.00 263.50 L 217.00 263.50 L 216.00 264.50 L 214.00 264.50 L 213.00 265.50 Z M 83.00 295.50 L 72.00 295.50 L 71.00 294.50 L 66.00 294.50 L 65.00 293.50 L 61.00 293.50 L 60.00 292.50 L 58.00 292.50 L 57.00 291.50 L 55.00 291.50 L 54.00 290.50 L 53.00 290.50 L 52.00 289.50 L 50.00 289.50 L 49.00 288.50 L 48.00 288.50 L 47.00 287.50 L 46.00 287.50 L 44.00 285.50 L 43.00 285.50 L 41.00 283.50 L 40.00 283.50 L 27.50 271.00 L 27.50 270.00 L 24.50 267.00 L 24.50 266.00 L 23.50 265.00 L 23.50 264.00 L 21.50 262.00 L 21.50 261.00 L 20.50 260.00 L 20.50 259.00 L 19.50 258.00 L 19.50 257.00 L 18.50 256.00 L 18.50 255.00 L 17.50 254.00 L 17.50 253.00 L 16.50 252.00 L 16.50 250.00 L 15.50 249.00 L 15.50 247.00 L 14.50 246.00 L 14.50 245.00 L 13.50 244.00 L 13.50 242.00 L 12.50 241.00 L 12.50 239.00 L 11.50 238.00 L 11.50 234.00 L 10.50 233.00 L 10.50 230.00 L 9.50 229.00 L 9.50 224.00 L 8.50 223.00 L 8.50 218.00 L 7.50 217.00 L 7.50 186.00 L 8.50 185.00 L 8.50 174.00 L 9.50 173.00 L 9.50 167.00 L 10.50 166.00 L 10.50 161.00 L 11.50 160.00 L 11.50 156.00 L 12.50 155.00 L 12.50 151.00 L 13.50 150.00 L 13.50 147.00 L 14.50 146.00 L 14.50 143.00 L 15.50 142.00 L 15.50 140.00 L 16.50 139.00 L 16.50 136.00 L 17.50 135.00 L 17.50 132.00 L 18.50 131.00 L 18.50 128.00 L 19.50 127.00 L 19.50 125.00 L 20.50 124.00 L 20.50 122.00 L 21.50 121.00 L 21.50 119.00 L 22.50 118.00 L 22.50 116.00 L 23.50 115.00 L 23.50 113.00 L 24.50 112.00 L 24.50 110.00 L 25.50 109.00 L 25.50 108.00 L 26.50 107.00 L 26.50 106.00 L 27.50 105.00 L 27.50 103.00 L 28.50 102.00 L 28.50 101.00 L 29.50 100.00 L 29.50 99.00 L 30.50 98.00 L 30.50 97.00 L 31.50 96.00 L 31.50 95.00 L 32.50 94.00 L 32.50 93.00 L 33.50 92.00 L 33.50 91.00 L 34.50 90.00 L 34.50 89.00 L 35.50 88.00 L 35.50 87.00 L 36.50 86.00 L 36.50 85.00 L 37.50 84.00 L 37.50 83.00 L 38.50 82.00 L 38.50 81.00 L 40.50 79.00 L 40.50 78.00 L 41.50 77.00 L 41.50 76.00 L 43.50 74.00 L 43.50 73.00 L 45.50 71.00 L 45.50 70.00 L 48.50 67.00 L 48.50 66.00 L 50.50 64.00 L 50.50 63.00 L 53.50 60.00 L 53.50 59.00 L 57.50 55.00 L 57.50 54.00 L 75.00 36.50 L 76.00 36.50 L 79.00 33.50 L 80.00 33.50 L 83.00 30.50 L 84.00 30.50 L 85.00 29.50 L 86.00 29.50 L 88.00 27.50 L 89.00 27.50 L 90.00 26.50 L 91.00 26.50 L 92.00 25.50 L 93.00 25.50 L 94.00 24.50 L 95.00 24.50 L 96.00 23.50 L 97.00 23.50 L 98.00 22.50 L 99.00 22.50 L 100.00 21.50 L 102.00 21.50 L 103.00 20.50 L 104.00 20.50 L 105.00 19.50 L 107.00 19.50 L 108.00 18.50 L 110.00 18.50 L 111.00 17.50 L 115.00 17.50 L 116.00 16.50 L 138.00 16.50 L 139.00 17.50 L 142.00 17.50 L 143.00 18.50 L 145.00 18.50 L 146.00 19.50 L 148.00 19.50 L 149.00 20.50 L 150.00 20.50 L 151.00 21.50 L 152.00 21.50 L 153.00 22.50 L 154.00 22.50 L 156.00 24.50 L 157.00 24.50 L 159.00 26.50 L 160.00 26.50 L 170.50 37.00 L 170.50 38.00 L 172.50 40.00 L 172.50 41.00 L 173.50 42.00 L 173.50 43.00 L 174.50 44.00 L 174.50 45.00 L 175.50 46.00 L 175.50 47.00 L 176.50 48.00 L 176.50 49.00 L 177.50 50.00 L 177.50 52.00 L 178.50 53.00 L 178.50 55.00 L 179.50 56.00 L 179.50 59.00 L 180.50 60.00 L 180.50 64.00 L 181.50 65.00 L 181.50 71.00 L 182.50 72.00 L 182.50 89.00 L 181.50 90.00 L 181.50 96.00 L 180.50 97.00 L 180.50 102.00 L 179.50 103.00 L 179.50 106.00 L 178.50 107.00 L 178.50 109.00 L 177.50 110.00 L 177.50 112.00 L 176.50 113.00 L 176.50 114.00 L 175.50 115.00 L 175.50 116.00 L 174.50 117.00 L 174.50 118.00 L 172.50 120.00 L 172.50 121.00 L 166.00 127.50 L 165.00 127.50 L 164.00 128.50 L 162.00 128.50 L 161.00 129.50 L 150.00 129.50 L 149.00 128.50 L 147.00 128.50 L 146.00 127.50 L 145.00 127.50 L 140.50 123.00 L 140.50 122.00 L 139.50 121.00 L 139.50 119.00 L 138.50 118.00 L 138.50 110.00 L 139.50 109.00 L 139.50 107.00 L 140.50 106.00 L 140.50 105.00 L 141.50 104.00 L 141.50 102.00 L 142.50 101.00 L 142.50 99.00 L 143.50 98.00 L 143.50 96.00 L 144.50 95.00 L 144.50 92.00 L 145.50 91.00 L 145.50 72.00 L 144.50 71.00 L 144.50 68.00 L 143.50 67.00 L 143.50 66.00 L 142.50 65.00 L 142.50 64.00 L 141.50 63.00 L 141.50 62.00 L 137.00 57.50 L 136.00 57.50 L 135.00 56.50 L 134.00 56.50 L 133.00 55.50 L 132.00 55.50 L 131.00 54.50 L 121.00 54.50 L 120.00 55.50 L 116.00 55.50 L 115.00 56.50 L 114.00 56.50 L 113.00 57.50 L 111.00 57.50 L 110.00 58.50 L 109.00 58.50 L 108.00 59.50 L 107.00 59.50 L 105.00 61.50 L 104.00 61.50 L 102.00 63.50 L 101.00 63.50 L 97.00 67.50 L 96.00 67.50 L 89.50 74.00 L 89.50 75.00 L 85.50 79.00 L 85.50 80.00 L 83.50 82.00 L 83.50 83.00 L 81.50 85.00 L 81.50 86.00 L 79.50 88.00 L 79.50 89.00 L 77.50 91.00 L 77.50 92.00 L 75.50 94.00 L 75.50 95.00 L 73.50 97.00 L 73.50 98.00 L 72.50 99.00 L 72.50 100.00 L 71.50 101.00 L 71.50 102.00 L 70.50 103.00 L 70.50 104.00 L 69.50 105.00 L 69.50 107.00 L 68.50 108.00 L 68.50 109.00 L 67.50 110.00 L 67.50 111.00 L 66.50 112.00 L 66.50 113.00 L 65.50 114.00 L 65.50 115.00 L 64.50 116.00 L 64.50 117.00 L 63.50 118.00 L 63.50 120.00 L 62.50 121.00 L 62.50 122.00 L 61.50 123.00 L 61.50 125.00 L 60.50 126.00 L 60.50 127.00 L 59.50 128.00 L 59.50 130.00 L 58.50 131.00 L 58.50 133.00 L 57.50 134.00 L 57.50 137.00 L 56.50 138.00 L 56.50 140.00 L 55.50 141.00 L 55.50 144.00 L 54.50 145.00 L 54.50 147.00 L 53.50 148.00 L 53.50 152.00 L 52.50 153.00 L 52.50 156.00 L 51.50 157.00 L 51.50 160.00 L 50.50 161.00 L 50.50 168.00 L 49.50 169.00 L 49.50 175.00 L 48.50 176.00 L 48.50 184.00 L 47.50 185.00 L 47.50 209.00 L 48.50 210.00 L 48.50 217.00 L 49.50 218.00 L 49.50 223.00 L 50.50 224.00 L 50.50 227.00 L 51.50 228.00 L 51.50 231.00 L 52.50 232.00 L 52.50 233.00 L 53.50 234.00 L 53.50 236.00 L 54.50 237.00 L 54.50 238.00 L 55.50 239.00 L 55.50 240.00 L 56.50 241.00 L 56.50 242.00 L 57.50 243.00 L 57.50 244.00 L 65.00 251.50 L 66.00 251.50 L 68.00 253.50 L 70.00 253.50 L 71.00 254.50 L 72.00 254.50 L 73.00 255.50 L 76.00 255.50 L 77.00 256.50 L 87.00 256.50 L 88.00 255.50 L 91.00 255.50 L 92.00 254.50 L 95.00 254.50 L 96.00 253.50 L 97.00 253.50 L 98.00 252.50 L 99.00 252.50 L 100.00 251.50 L 101.00 251.50 L 103.00 249.50 L 104.00 249.50 L 107.00 246.50 L 108.00 246.50 L 116.50 238.00 L 116.50 237.00 L 120.50 233.00 L 120.50 232.00 L 121.50 231.00 L 121.50 230.00 L 123.50 228.00 L 123.50 227.00 L 126.50 224.00 L 126.50 223.00 L 127.50 222.00 L 127.50 221.00 L 129.50 219.00 L 129.50 218.00 L 130.50 217.00 L 130.50 216.00 L 131.50 215.00 L 131.50 213.00 L 132.50 212.00 L 132.50 211.00 L 133.50 210.00 L 133.50 209.00 L 134.50 208.00 L 134.50 206.00 L 135.50 205.00 L 135.50 203.00 L 136.50 202.00 L 136.50 201.00 L 137.50 200.00 L 137.50 198.00 L 138.50 197.00 L 138.50 195.00 L 139.50 194.00 L 139.50 191.00 L 140.50 190.00 L 140.50 189.00 L 141.50 188.00 L 141.50 186.00 L 143.50 184.00 L 143.50 183.00 L 150.00 176.50 L 152.00 176.50 L 153.00 175.50 L 159.00 175.50 L 160.00 176.50 L 162.00 176.50 L 163.00 177.50 L 165.00 177.50 L 167.00 179.50 L 168.00 179.50 L 171.50 183.00 L 171.50 184.00 L 172.50 185.00 L 172.50 186.00 L 173.50 187.00 L 173.50 189.00 L 174.50 190.00 L 174.50 201.00 L 173.50 202.00 L 173.50 205.00 L 172.50 206.00 L 172.50 208.00 L 171.50 209.00 L 171.50 212.00 L 170.50 213.00 L 170.50 215.00 L 169.50 216.00 L 169.50 218.00 L 168.50 219.00 L 168.50 220.00 L 167.50 221.00 L 167.50 222.00 L 166.50 223.00 L 166.50 225.00 L 165.50 226.00 L 165.50 227.00 L 164.50 228.00 L 164.50 229.00 L 163.50 230.00 L 163.50 232.00 L 162.50 233.00 L 162.50 234.00 L 161.50 235.00 L 161.50 236.00 L 159.50 238.00 L 159.50 239.00 L 158.50 240.00 L 158.50 241.00 L 156.50 243.00 L 156.50 244.00 L 154.50 246.00 L 154.50 247.00 L 153.50 248.00 L 153.50 249.00 L 150.50 252.00 L 150.50 253.00 L 148.50 255.00 L 148.50 256.00 L 143.50 261.00 L 143.50 262.00 L 131.00 274.50 L 130.00 274.50 L 126.00 278.50 L 125.00 278.50 L 123.00 280.50 L 122.00 280.50 L 119.00 283.50 L 118.00 283.50 L 117.00 284.50 L 116.00 284.50 L 115.00 285.50 L 114.00 285.50 L 113.00 286.50 L 112.00 286.50 L 111.00 287.50 L 110.00 287.50 L 109.00 288.50 L 108.00 288.50 L 107.00 289.50 L 105.00 289.50 L 104.00 290.50 L 103.00 290.50 L 102.00 291.50 L 100.00 291.50 L 99.00 292.50 L 97.00 292.50 L 96.00 293.50 L 92.00 293.50 L 91.00 294.50 L 84.00 294.50 L 83.00 295.50 Z M 229.50 127.00 L 229.50 126.00 L 231.50 124.00 L 231.50 123.00 L 233.50 121.00 L 233.50 119.00 L 234.50 118.00 L 234.50 117.00 L 235.50 116.00 L 235.50 115.00 L 236.50 114.00 L 236.50 113.00 L 237.50 112.00 L 237.50 111.00 L 238.50 110.00 L 238.50 108.00 L 239.50 107.00 L 239.50 106.00 L 240.50 105.00 L 240.50 103.00 L 241.50 102.00 L 241.50 100.00 L 242.50 99.00 L 242.50 97.00 L 243.50 96.00 L 243.50 93.00 L 244.50 92.00 L 244.50 90.00 L 245.50 89.00 L 245.50 86.00 L 246.50 85.00 L 246.50 83.00 L 247.50 82.00 L 247.50 80.00 L 248.50 79.00 L 248.50 75.00 L 249.50 74.00 L 249.50 72.00 L 250.50 71.00 L 250.50 67.00 L 251.50 66.00 L 251.50 55.00 L 251.00 54.50 L 250.00 54.50 L 247.50 57.00 L 247.50 58.00 L 246.50 59.00 L 246.50 60.00 L 245.50 61.00 L 245.50 62.00 L 244.50 63.00 L 244.50 64.00 L 243.50 65.00 L 243.50 67.00 L 242.50 68.00 L 242.50 69.00 L 241.50 70.00 L 241.50 73.00 L 240.50 74.00 L 240.50 75.00 L 239.50 76.00 L 239.50 79.00 L 238.50 80.00 L 238.50 82.00 L 237.50 83.00 L 237.50 85.00 L 236.50 86.00 L 236.50 89.00 L 235.50 90.00 L 235.50 92.00 L 234.50 93.00 L 234.50 96.00 L 233.50 97.00 L 233.50 99.00 L 232.50 100.00 L 232.50 103.00 L 231.50 104.00 L 231.50 108.00 L 230.50 109.00 L 230.50 111.00 L 229.50 112.00 L 229.50 115.00 L 228.50 116.00 L 228.50 119.00 L 227.50 120.00 L 227.50 127.00 L 228.00 127.50 L 229.00 127.50 L 229.50 127.00 Z M 293.50 213.00 L 294.00 212.50 L 296.00 212.50 L 297.00 211.50 L 298.00 211.50 L 301.00 208.50 L 302.00 208.50 L 306.50 204.00 L 306.50 203.00 L 308.50 201.00 L 308.50 200.00 L 310.50 198.00 L 310.50 197.00 L 311.50 196.00 L 311.50 195.00 L 313.50 193.00 L 313.50 192.00 L 314.50 191.00 L 314.50 190.00 L 315.50 189.00 L 315.50 187.00 L 316.50 186.00 L 316.50 185.00 L 317.50 184.00 L 317.50 182.00 L 318.50 181.00 L 318.50 179.00 L 319.50 178.00 L 319.50 175.00 L 320.50 174.00 L 320.50 165.00 L 319.50 164.00 L 319.50 163.00 L 318.50 162.00 L 318.50 161.00 L 316.00 158.50 L 315.00 158.50 L 314.00 157.50 L 310.00 157.50 L 309.00 158.50 L 307.00 158.50 L 306.00 159.50 L 305.00 159.50 L 304.00 160.50 L 303.00 160.50 L 302.00 161.50 L 301.00 161.50 L 294.50 168.00 L 294.50 169.00 L 292.50 171.00 L 292.50 172.00 L 290.50 174.00 L 290.50 175.00 L 289.50 176.00 L 289.50 177.00 L 288.50 178.00 L 288.50 179.00 L 287.50 180.00 L 287.50 181.00 L 286.50 182.00 L 286.50 183.00 L 285.50 184.00 L 285.50 186.00 L 284.50 187.00 L 284.50 189.00 L 283.50 190.00 L 283.50 194.00 L 282.50 195.00 L 282.50 206.00 L 283.50 207.00 L 283.50 208.00 L 284.50 209.00 L 284.50 210.00 L 287.00 212.50 L 288.00 212.50 L 289.00 213.50 L 293.00 213.50 L 293.50 213.00 Z M 529.50 148.00 L 530.00 147.50 L 531.00 147.50 L 532.00 146.50 L 533.00 146.50 L 534.00 145.50 L 535.00 145.50 L 536.00 144.50 L 537.00 144.50 L 539.00 142.50 L 540.00 142.50 L 541.00 141.50 L 542.00 141.50 L 544.00 139.50 L 545.00 139.50 L 550.50 134.00 L 550.50 133.00 L 555.50 128.00 L 555.50 127.00 L 556.50 126.00 L 556.50 124.00 L 557.50 123.00 L 557.50 122.00 L 556.50 121.00 L 556.50 120.00 L 555.00 118.50 L 550.00 118.50 L 549.00 119.50 L 547.00 119.50 L 545.00 121.50 L 544.00 121.50 L 542.00 123.50 L 541.00 123.50 L 532.50 132.00 L 532.50 133.00 L 530.50 135.00 L 530.50 136.00 L 529.50 137.00 L 529.50 138.00 L 527.50 140.00 L 527.50 141.00 L 526.50 142.00 L 526.50 144.00 L 525.50 145.00 L 525.50 147.00 L 527.00 148.50 L 529.00 148.50 L 529.50 148.00 Z"/>
</svg>
