<svg xmlns="http://www.w3.org/2000/svg" viewBox="0 0 64 64" fill="none">
  <rect width="64" height="64" rx="14" fill="#0A0A0B"/>
  <rect x="17" y="20" width="30" height="2.5" rx="1.25" fill="#2A2415" opacity=".85"/>
  <rect x="17" y="30.75" width="30" height="2.5" rx="1.25" fill="#2A2415" opacity=".85"/>
  <rect x="17" y="41.5" width="30" height="2.5" rx="1.25" fill="#2A2415" opacity=".85"/>
  <path d="M35 14.5c-5.5 0-10 4.5-10 10v8.25l-3.5 1.5V38l3.5-1.5v10.25c0 4.4 3.6 8 8 8 5 0 9-4 9-9 0-4.5-3.5-8.2-8-8.2-2.1 0-4 .8-5.4 2.1l-.1-2.9 6.5-2.8v-4.8l-6.5 2.8V26.5c0-2.4 2-4.5 4.5-4.5 2.5 0 4.5 2.1 4.5 4.5v1h4v-1c0-4.7-3.8-8.5-8.5-8.5Zm-2 27c2.2 0 4 1.8 4 4s-1.8 4-4 4-4-1.8-4-4 1.8-4 4-4Z" fill="#F5B62E"/>
</svg>
